<mxfile host="Electron" agent="Mozilla/5.0 (Macintosh; Intel Mac OS X 10_15_7) AppleWebKit/537.36 (KHTML, like Gecko) draw.io/26.0.16 Chrome/132.0.6834.196 Electron/34.2.0 Safari/537.36" version="26.0.16">
  <diagram name="Page-1" id="aWHvYDmvU6KEJwanwGd7">
    <mxGraphModel dx="2811" dy="2134" grid="1" gridSize="10" guides="1" tooltips="1" connect="1" arrows="1" fold="1" page="1" pageScale="1" pageWidth="850" pageHeight="1100" math="0" shadow="0">
      <root>
        <mxCell id="0" />
        <mxCell id="1" parent="0" />
        <mxCell id="KJYIOcynAz07dcxsfuO2-17" value="Tạo mã rút tiền ATM" style="swimlane;html=1;childLayout=stackLayout;startSize=20;rounded=0;shadow=0;comic=0;labelBackgroundColor=none;strokeWidth=1;fontFamily=Verdana;fontSize=12;align=center;fixedWidth=1;" parent="1" vertex="1">
          <mxGeometry x="40" y="40" width="930.5" height="720" as="geometry">
            <mxRectangle x="40" y="20" width="70" height="30" as="alternateBounds" />
          </mxGeometry>
        </mxCell>
        <mxCell id="KJYIOcynAz07dcxsfuO2-72" style="rounded=0;html=1;labelBackgroundColor=none;startArrow=none;startFill=0;startSize=5;endArrow=classicThin;endFill=1;endSize=5;jettySize=auto;orthogonalLoop=1;strokeWidth=1;fontFamily=Verdana;fontSize=12" parent="KJYIOcynAz07dcxsfuO2-17" source="KJYIOcynAz07dcxsfuO2-46" target="Yu1xLJiBmAxWLEI_7CF--1" edge="1">
          <mxGeometry relative="1" as="geometry">
            <mxPoint x="412" y="70" as="targetPoint" />
          </mxGeometry>
        </mxCell>
        <mxCell id="KJYIOcynAz07dcxsfuO2-18" value="Khách hàng" style="swimlane;html=1;startSize=20;" parent="KJYIOcynAz07dcxsfuO2-17" vertex="1">
          <mxGeometry y="20" width="350.5" height="700" as="geometry" />
        </mxCell>
        <mxCell id="KJYIOcynAz07dcxsfuO2-45" value="" style="ellipse;whiteSpace=wrap;html=1;rounded=0;shadow=0;comic=0;labelBackgroundColor=none;strokeWidth=1;fillColor=#000000;fontFamily=Verdana;fontSize=12;align=center;" parent="KJYIOcynAz07dcxsfuO2-18" vertex="1">
          <mxGeometry x="20" y="30" width="40" height="40" as="geometry" />
        </mxCell>
        <mxCell id="KJYIOcynAz07dcxsfuO2-46" value="Chọn Tạo mã rút tiền ATM" style="rounded=1;whiteSpace=wrap;html=1;shadow=0;comic=0;labelBackgroundColor=none;strokeWidth=1;fontFamily=Verdana;fontSize=12;align=center;arcSize=50;" parent="KJYIOcynAz07dcxsfuO2-18" vertex="1">
          <mxGeometry x="103.5" y="35" width="130" height="30" as="geometry" />
        </mxCell>
        <mxCell id="KJYIOcynAz07dcxsfuO2-44" style="edgeStyle=orthogonalEdgeStyle;rounded=0;html=1;labelBackgroundColor=none;startArrow=none;startFill=0;startSize=5;endArrow=classicThin;endFill=1;endSize=5;jettySize=auto;orthogonalLoop=1;strokeWidth=1;fontFamily=Verdana;fontSize=12" parent="KJYIOcynAz07dcxsfuO2-18" source="KJYIOcynAz07dcxsfuO2-45" target="KJYIOcynAz07dcxsfuO2-46" edge="1">
          <mxGeometry relative="1" as="geometry" />
        </mxCell>
        <mxCell id="Yu1xLJiBmAxWLEI_7CF--2" value="Khách hàng xác thực giao dịch" style="rounded=1;whiteSpace=wrap;html=1;shadow=0;comic=0;labelBackgroundColor=none;strokeWidth=1;fontFamily=Verdana;fontSize=12;align=center;arcSize=50;" vertex="1" parent="KJYIOcynAz07dcxsfuO2-18">
          <mxGeometry x="111.88" y="160" width="126.75" height="40" as="geometry" />
        </mxCell>
        <mxCell id="KJYIOcynAz07dcxsfuO2-27" value="Hệ thống" style="swimlane;html=1;startSize=20;" parent="KJYIOcynAz07dcxsfuO2-17" vertex="1">
          <mxGeometry x="350.5" y="20" width="330" height="700" as="geometry" />
        </mxCell>
        <mxCell id="KJYIOcynAz07dcxsfuO2-187" value="" style="ellipse;html=1;shape=endState;fillColor=strokeColor;" parent="KJYIOcynAz07dcxsfuO2-27" vertex="1">
          <mxGeometry x="119.5" y="620" width="30" height="30" as="geometry" />
        </mxCell>
        <mxCell id="Yu1xLJiBmAxWLEI_7CF--1" value="Hiển thị biểu mẫu cho khách hàng nhập vào" style="rounded=1;whiteSpace=wrap;html=1;shadow=0;comic=0;labelBackgroundColor=none;strokeWidth=1;fontFamily=Verdana;fontSize=12;align=center;arcSize=50;" vertex="1" parent="KJYIOcynAz07dcxsfuO2-27">
          <mxGeometry x="79.75" y="30" width="170.5" height="40" as="geometry" />
        </mxCell>
        <mxCell id="Yu1xLJiBmAxWLEI_7CF--4" value="Hệ thống gửi thông tin về ngân hàng" style="rounded=1;whiteSpace=wrap;html=1;shadow=0;comic=0;labelBackgroundColor=none;strokeWidth=1;fontFamily=Verdana;fontSize=12;align=center;arcSize=50;" vertex="1" parent="KJYIOcynAz07dcxsfuO2-27">
          <mxGeometry x="186.5" y="370" width="126.75" height="40" as="geometry" />
        </mxCell>
        <mxCell id="Yu1xLJiBmAxWLEI_7CF--29" style="edgeStyle=elbowEdgeStyle;rounded=0;orthogonalLoop=1;jettySize=auto;html=1;" edge="1" parent="KJYIOcynAz07dcxsfuO2-27" source="Yu1xLJiBmAxWLEI_7CF--12" target="KJYIOcynAz07dcxsfuO2-187">
          <mxGeometry relative="1" as="geometry">
            <Array as="points">
              <mxPoint x="180" y="630" />
            </Array>
          </mxGeometry>
        </mxCell>
        <mxCell id="Yu1xLJiBmAxWLEI_7CF--12" value="Hệ thống gửi mã về cho khách hàng" style="rounded=1;whiteSpace=wrap;html=1;shadow=0;comic=0;labelBackgroundColor=none;strokeWidth=1;fontFamily=Verdana;fontSize=12;align=center;arcSize=50;" vertex="1" parent="KJYIOcynAz07dcxsfuO2-27">
          <mxGeometry x="131.62" y="490" width="168.38" height="40" as="geometry" />
        </mxCell>
        <mxCell id="Yu1xLJiBmAxWLEI_7CF--25" value="Thất bại" style="edgeStyle=elbowEdgeStyle;rounded=0;orthogonalLoop=1;jettySize=auto;html=1;elbow=vertical;" edge="1" parent="KJYIOcynAz07dcxsfuO2-27" source="Yu1xLJiBmAxWLEI_7CF--16" target="Yu1xLJiBmAxWLEI_7CF--20">
          <mxGeometry relative="1" as="geometry" />
        </mxCell>
        <mxCell id="Yu1xLJiBmAxWLEI_7CF--16" value="" style="rhombus;" vertex="1" parent="KJYIOcynAz07dcxsfuO2-27">
          <mxGeometry x="270" y="245" width="30" height="30" as="geometry" />
        </mxCell>
        <mxCell id="Yu1xLJiBmAxWLEI_7CF--5" style="edgeStyle=elbowEdgeStyle;rounded=0;orthogonalLoop=1;jettySize=auto;html=1;elbow=vertical;" edge="1" parent="KJYIOcynAz07dcxsfuO2-27" source="Yu1xLJiBmAxWLEI_7CF--16" target="Yu1xLJiBmAxWLEI_7CF--4">
          <mxGeometry relative="1" as="geometry">
            <mxPoint x="-160.49999999999955" y="240" as="sourcePoint" />
            <Array as="points">
              <mxPoint x="285" y="350" />
            </Array>
          </mxGeometry>
        </mxCell>
        <mxCell id="Yu1xLJiBmAxWLEI_7CF--14" value="Thành công" style="edgeLabel;html=1;align=center;verticalAlign=middle;resizable=0;points=[];" vertex="1" connectable="0" parent="Yu1xLJiBmAxWLEI_7CF--5">
          <mxGeometry x="-0.3992" relative="1" as="geometry">
            <mxPoint as="offset" />
          </mxGeometry>
        </mxCell>
        <mxCell id="Yu1xLJiBmAxWLEI_7CF--27" value="" style="edgeStyle=elbowEdgeStyle;rounded=0;orthogonalLoop=1;jettySize=auto;html=1;elbow=vertical;" edge="1" parent="KJYIOcynAz07dcxsfuO2-27" source="Yu1xLJiBmAxWLEI_7CF--20" target="Yu1xLJiBmAxWLEI_7CF--26">
          <mxGeometry relative="1" as="geometry" />
        </mxCell>
        <mxCell id="Yu1xLJiBmAxWLEI_7CF--20" value="Hệ thống kiểm tra số lần thử tối đa là 5" style="rounded=1;whiteSpace=wrap;html=1;shadow=0;comic=0;labelBackgroundColor=none;strokeWidth=1;fontFamily=Verdana;fontSize=12;align=center;arcSize=50;" vertex="1" parent="KJYIOcynAz07dcxsfuO2-27">
          <mxGeometry x="11" y="240" width="145.5" height="40" as="geometry" />
        </mxCell>
        <mxCell id="Yu1xLJiBmAxWLEI_7CF--30" style="edgeStyle=elbowEdgeStyle;rounded=0;orthogonalLoop=1;jettySize=auto;html=1;" edge="1" parent="KJYIOcynAz07dcxsfuO2-27" source="Yu1xLJiBmAxWLEI_7CF--26" target="KJYIOcynAz07dcxsfuO2-187">
          <mxGeometry relative="1" as="geometry">
            <mxPoint x="83.75" y="512" as="targetPoint" />
            <Array as="points">
              <mxPoint x="90" y="630" />
            </Array>
          </mxGeometry>
        </mxCell>
        <mxCell id="Yu1xLJiBmAxWLEI_7CF--34" value="Sai" style="edgeLabel;html=1;align=center;verticalAlign=middle;resizable=0;points=[];" vertex="1" connectable="0" parent="Yu1xLJiBmAxWLEI_7CF--30">
          <mxGeometry x="-0.6394" y="-2" relative="1" as="geometry">
            <mxPoint as="offset" />
          </mxGeometry>
        </mxCell>
        <mxCell id="Yu1xLJiBmAxWLEI_7CF--26" value="" style="rhombus;" vertex="1" parent="KJYIOcynAz07dcxsfuO2-27">
          <mxGeometry x="68.75" y="320" width="30" height="30" as="geometry" />
        </mxCell>
        <mxCell id="KJYIOcynAz07dcxsfuO2-165" value="Ngân hàng" style="swimlane;html=1;startSize=20;" parent="KJYIOcynAz07dcxsfuO2-17" vertex="1">
          <mxGeometry x="680.5" y="20" width="250" height="700" as="geometry" />
        </mxCell>
        <mxCell id="Yu1xLJiBmAxWLEI_7CF--10" value="Ngân hàng ghi nhận và xử lý" style="rounded=1;whiteSpace=wrap;html=1;shadow=0;comic=0;labelBackgroundColor=none;strokeWidth=1;fontFamily=Verdana;fontSize=12;align=center;arcSize=50;" vertex="1" parent="KJYIOcynAz07dcxsfuO2-165">
          <mxGeometry x="55" y="175" width="140" height="45" as="geometry" />
        </mxCell>
        <mxCell id="Yu1xLJiBmAxWLEI_7CF--3" style="rounded=0;html=1;labelBackgroundColor=none;startArrow=none;startFill=0;startSize=5;endArrow=classicThin;endFill=1;endSize=5;jettySize=auto;orthogonalLoop=1;strokeWidth=1;fontFamily=Verdana;fontSize=12;edgeStyle=elbowEdgeStyle;elbow=vertical;" edge="1" parent="KJYIOcynAz07dcxsfuO2-17" source="Yu1xLJiBmAxWLEI_7CF--1" target="Yu1xLJiBmAxWLEI_7CF--2">
          <mxGeometry relative="1" as="geometry">
            <mxPoint x="440" y="80" as="targetPoint" />
            <mxPoint x="244" y="80" as="sourcePoint" />
          </mxGeometry>
        </mxCell>
        <mxCell id="Yu1xLJiBmAxWLEI_7CF--11" style="edgeStyle=elbowEdgeStyle;rounded=0;orthogonalLoop=1;jettySize=auto;html=1;elbow=vertical;" edge="1" parent="KJYIOcynAz07dcxsfuO2-17" source="Yu1xLJiBmAxWLEI_7CF--10" target="Yu1xLJiBmAxWLEI_7CF--12">
          <mxGeometry relative="1" as="geometry">
            <mxPoint x="537" y="280" as="sourcePoint" />
            <mxPoint x="520" y="360" as="targetPoint" />
            <Array as="points">
              <mxPoint x="670" y="530" />
            </Array>
          </mxGeometry>
        </mxCell>
        <mxCell id="Yu1xLJiBmAxWLEI_7CF--28" style="edgeStyle=elbowEdgeStyle;rounded=0;orthogonalLoop=1;jettySize=auto;html=1;elbow=vertical;" edge="1" parent="KJYIOcynAz07dcxsfuO2-17" source="Yu1xLJiBmAxWLEI_7CF--2" target="Yu1xLJiBmAxWLEI_7CF--16">
          <mxGeometry relative="1" as="geometry">
            <Array as="points">
              <mxPoint x="400" y="200" />
            </Array>
          </mxGeometry>
        </mxCell>
        <mxCell id="Yu1xLJiBmAxWLEI_7CF--31" style="edgeStyle=elbowEdgeStyle;rounded=0;orthogonalLoop=1;jettySize=auto;html=1;elbow=vertical;" edge="1" parent="KJYIOcynAz07dcxsfuO2-17" source="Yu1xLJiBmAxWLEI_7CF--26" target="Yu1xLJiBmAxWLEI_7CF--2">
          <mxGeometry relative="1" as="geometry">
            <Array as="points">
              <mxPoint x="300" y="355" />
            </Array>
          </mxGeometry>
        </mxCell>
        <mxCell id="Yu1xLJiBmAxWLEI_7CF--35" value="Đúng" style="edgeLabel;html=1;align=center;verticalAlign=middle;resizable=0;points=[];" vertex="1" connectable="0" parent="Yu1xLJiBmAxWLEI_7CF--31">
          <mxGeometry x="-0.4202" y="-1" relative="1" as="geometry">
            <mxPoint as="offset" />
          </mxGeometry>
        </mxCell>
      </root>
    </mxGraphModel>
  </diagram>
</mxfile>
